DDR Presents

Bollywood MOvie

1920: Evil Returns (2012) DVDRip - XviD - AC3 - ESubs - 1/3DVDr [DDR]

1/3DVDRip XviD 5.1 AC3 ESubs

Complete name                            : dvdrip-1920er-ddr.avi
Source					 : DVD9 [DDR]
Ripper					 : th3obr0

Format                                   : AVI
Format/Info                              : Audio Video Interleave
File size                                : 1.45 GiB
Duration                                 : 1h 59mn
Overall bit rate                         : 1 740 Kbps
Writing application                      : VirtualDubMod 1.5.10.2 (build 2540/release)
Writing library                          : VirtualDubMod build 2540/release

Video
ID                                       : 0
Format                                   : MPEG-4 Visual
Format profile                           : Advanced Simple@L5
Format settings, BVOP                    : 3
Format settings, QPel                    : No
Format settings, GMC                     : No warppoints
Format settings, Matrix                  : Default (MPEG)
Codec ID                                 : XVID
Codec ID/Hint                            : XviD
Duration                                 : 1h 59mn
Bit rate                                 : 1 281 Kbps
Width                                    : 720 pixels
Height                                   : 304 pixels
Display aspect ratio                     : 2.35:1
Frame rate                               : 29.970 fps
Color space                              : YUV
Chroma subsampling                       : 4:2:0
Bit depth                                : 8 bits
Scan type                                : Progressive
Compression mode                         : Lossy
Bits/(Pixel*Frame)                       : 0.195
Stream size                              : 1.07 GiB (74%)
Writing library                          : XviD 1.2.1 (UTC 2008-12-04)

Audio
ID                                       : 1
Format                                   : AC-3
Format/Info                              : Audio Coding 3
Mode extension                           : CM (complete main)
Format settings, Endianness              : Big
Codec ID                                 : 2000
Duration                                 : 1h 59mn
Bit rate mode                            : Constant
Bit rate                                 : 448 Kbps
Channel(s)                               : 6 channels
Channel positions                        : Front: L C R, Side: L R, LFE
Sampling rate                            : 48.0 KHz
Bit depth                                : 16 bits
Compression mode                         : Lossy
Stream size                              : 382 MiB (26%)
Alignment                                : Split accross interleaves
Interleave, duration                     : 33 ms (1.00 video frame)
Interleave, preload duration             : 500 ms
 
http://img703.imageshack.us/img703/2736/190319.png 
http://img441.imageshack.us/img441/1747/77694.png 
http://img40.imageshack.us/img40/4879/75360.png 
http://img827.imageshack.us/img827/2536/20573.png 
http://img210.imageshack.us/img210/9854/82717.png 
http://img593.imageshack.us/img593/1750/34333.png

